<?xml version="1.0" standalone="no"?>
<!DOCTYPE svg PUBLIC "-//W3C//DTD SVG 20010904//EN"
 "http://www.w3.org/TR/2001/REC-SVG-20010904/DTD/svg10.dtd">
<svg version="1.0" xmlns="http://www.w3.org/2000/svg"
 width="2700.000000pt" height="2700.000000pt" viewBox="0 0 2700.000000 2700.000000"
 preserveAspectRatio="xMidYMid meet">
<metadata>
Created by potrace 1.14, written by Peter Selinger 2001-2017
</metadata>
<g transform="translate(0.000000,2700.000000) scale(0.100000,-0.100000)"
fill="#000000" stroke="none">
<path d="M12775 25979 c-223 -13 -545 -38 -553 -43 -4 -2 -64 -9 -132 -16 -69
-6 -186 -20 -260 -31 -518 -75 -578 -85 -905 -159 -452 -102 -572 -130 -695
-165 -25 -7 -61 -16 -80 -20 -19 -4 -62 -15 -95 -25 -33 -10 -91 -28 -130 -39
-129 -37 -259 -80 -390 -126 -71 -26 -148 -53 -170 -60 -158 -54 -443 -159
-500 -185 -11 -5 -51 -21 -90 -36 -448 -170 -1000 -444 -1643 -815 -28 -17
-187 -116 -324 -204 -26 -16 -82 -52 -125 -79 -99 -63 -368 -243 -454 -304
-174 -123 -265 -191 -520 -392 -87 -68 -438 -364 -499 -422 -14 -12 -57 -50
-95 -83 -151 -128 -711 -694 -978 -987 -261 -287 -589 -703 -822 -1043 -34
-49 -85 -124 -114 -165 -98 -140 -356 -534 -394 -601 -13 -24 -69 -120 -124
-214 -55 -93 -127 -222 -160 -285 -33 -63 -75 -142 -93 -175 -79 -146 -340
-677 -340 -693 0 -3 -9 -24 -19 -46 -10 -23 -27 -59 -36 -81 -24 -54 -47 -108
-79 -179 -14 -32 -26 -63 -26 -68 0 -6 -6 -24 -14 -41 -8 -18 -29 -68 -46
-112 -17 -44 -37 -93 -45 -110 -12 -27 -33 -81 -74 -195 -7 -19 -19 -55 -27
-80 -8 -25 -18 -54 -24 -65 -6 -11 -16 -40 -24 -65 -8 -25 -28 -83 -44 -130
-17 -47 -33 -101 -37 -120 -4 -19 -13 -48 -21 -65 -16 -37 -65 -206 -124 -420
-12 -44 -30 -110 -41 -146 -10 -36 -19 -72 -19 -80 0 -8 -9 -43 -19 -79 -23
-75 -47 -176 -66 -270 -7 -36 -20 -94 -28 -130 -25 -105 -54 -246 -77 -380
-12 -69 -28 -157 -36 -197 -9 -39 -19 -114 -24 -165 -5 -51 -14 -109 -20 -128
-6 -19 -15 -84 -20 -145 -5 -60 -14 -135 -20 -165 -5 -30 -17 -134 -25 -230
-8 -96 -19 -209 -24 -251 -18 -140 -32 -670 -35 -1248 -1 -437 -5 -576 -14
-579 -7 -2 -12 -14 -12 -27 0 -13 -4 -26 -9 -29 -5 -4 -12 -28 -16 -55 l-7
-48 -76 -7 c-42 -4 -79 -12 -82 -17 -4 -5 -62 -12 -131 -15 -118 -6 -173 -2
-386 28 l-83 11 -6 49 c-4 27 -12 48 -18 48 -7 0 -19 15 -27 32 -8 18 -22 34
-31 36 -17 3 -18 -10 -18 -165 0 -112 4 -173 11 -180 7 -7 15 -76 19 -170 4
-87 12 -176 19 -198 6 -22 11 -81 11 -130 0 -57 4 -95 12 -103 7 -7 13 -51 16
-104 2 -51 10 -110 18 -131 8 -20 14 -64 14 -96 0 -32 7 -75 15 -94 8 -20 15
-61 15 -92 0 -31 7 -72 15 -92 8 -19 15 -55 15 -79 0 -24 6 -61 14 -81 8 -21
17 -68 21 -105 4 -37 10 -70 15 -73 4 -3 11 -33 15 -67 4 -35 11 -68 16 -74 5
-6 12 -40 16 -75 3 -34 12 -74 20 -89 7 -14 13 -43 13 -65 0 -22 7 -49 15 -59
8 -11 15 -36 15 -57 0 -20 7 -50 15 -65 8 -16 15 -45 15 -65 0 -19 7 -44 15
-55 8 -10 15 -34 15 -52 0 -18 6 -45 14 -60 7 -15 16 -48 20 -74 4 -26 11 -50
16 -53 5 -3 12 -26 16 -50 3 -25 10 -48 15 -50 4 -3 11 -26 15 -52 4 -25 13
-58 20 -72 8 -14 14 -39 14 -56 0 -16 7 -39 15 -49 8 -11 15 -32 15 -46 0 -14
7 -35 15 -46 8 -10 15 -30 15 -44 0 -14 7 -36 15 -50 8 -14 14 -34 15 -45 0
-11 7 -33 15 -49 8 -15 15 -36 15 -45 0 -9 6 -28 14 -43 8 -15 17 -41 21 -58
4 -17 13 -43 21 -58 8 -15 14 -35 14 -44 0 -9 6 -29 14 -45 18 -37 37 -92 43
-125 3 -15 11 -33 19 -39 8 -6 14 -21 14 -33 0 -12 7 -31 15 -42 8 -10 15 -28
15 -40 0 -11 7 -29 15 -40 8 -10 15 -25 15 -32 0 -12 14 -46 56 -139 8 -17 14
-37 14 -45 0 -7 7 -22 15 -32 8 -11 15 -30 15 -43 0 -13 4 -23 10 -23 5 0 12
-12 16 -27 3 -16 12 -43 20 -60 21 -48 65 -150 98 -228 9 -22 24 -52 32 -67 7
-14 14 -33 14 -42 0 -9 4 -16 9 -16 5 0 13 -10 16 -22 7 -25 61 -143 76 -168
5 -8 12 -22 15 -30 6 -15 139 -283 154 -310 5 -8 11 -22 14 -30 4 -8 28 -55
56 -105 27 -49 63 -117 80 -150 17 -33 45 -82 61 -110 16 -27 37 -63 45 -80 8
-16 23 -43 34 -60 11 -16 24 -41 30 -54 6 -13 24 -44 40 -68 17 -24 30 -46 30
-50 0 -3 14 -25 30 -50 17 -24 30 -46 30 -50 0 -3 13 -24 29 -48 16 -24 32
-53 36 -64 3 -12 10 -21 15 -21 4 0 10 -8 14 -17 3 -10 24 -45 46 -78 22 -33
43 -67 47 -75 3 -8 19 -31 35 -51 15 -20 28 -39 28 -42 0 -3 29 -50 65 -104
86 -129 87 -132 108 -158 9 -13 17 -26 17 -29 0 -3 8 -15 18 -25 9 -11 37 -49
62 -86 38 -56 222 -309 248 -340 4 -5 61 -80 127 -165 65 -85 125 -161 132
-168 7 -7 34 -41 60 -75 26 -34 52 -66 59 -72 6 -5 30 -35 54 -65 23 -30 58
-73 79 -94 20 -22 45 -52 56 -66 23 -31 118 -138 190 -214 28 -29 86 -93 130
-142 96 -107 320 -331 549 -549 233 -222 246 -234 376 -348 63 -56 126 -113
140 -127 14 -14 56 -50 95 -80 38 -30 77 -62 86 -70 16 -15 22 -20 119 -100
30 -25 57 -47 60 -50 3 -3 37 -30 75 -59 39 -30 75 -60 80 -66 10 -12 334
-258 375 -285 12 -8 28 -19 34 -25 27 -23 161 -115 381 -262 94 -62 175 -117
181 -121 14 -10 75 -47 169 -105 11 -7 22 -14 25 -17 3 -3 27 -19 54 -35 27
-17 59 -37 72 -45 28 -19 330 -199 364 -218 14 -7 43 -23 65 -36 339 -191 990
-513 1235 -612 53 -21 127 -52 155 -64 28 -12 102 -43 155 -64 56 -23 100 -42
143 -61 17 -8 44 -17 60 -21 15 -3 30 -10 33 -15 3 -5 13 -9 22 -9 9 0 30 -7
46 -15 15 -8 33 -15 40 -15 6 0 22 -6 36 -13 14 -7 147 -53 295 -101 149 -48
279 -91 290 -96 20 -8 107 -35 215 -67 30 -9 73 -22 95 -28 22 -7 65 -19 95
-28 30 -8 82 -22 115 -32 173 -48 210 -57 310 -81 33 -7 87 -20 120 -28 117
-29 141 -34 220 -51 44 -9 103 -23 131 -31 28 -8 64 -14 79 -14 16 0 54 -6 84
-14 31 -8 85 -20 121 -26 157 -29 231 -41 322 -54 54 -8 102 -17 107 -20 6 -4
50 -11 98 -16 48 -5 120 -14 158 -19 245 -36 562 -67 760 -76 72 -3 157 -10
190 -15 94 -15 1155 -23 1445 -11 307 12 551 28 680 42 52 6 147 15 210 20 63
4 133 13 155 18 22 6 57 11 79 11 21 0 68 6 105 14 36 8 102 20 146 26 149 21
260 38 345 54 47 8 117 20 155 26 39 7 95 18 126 26 30 8 69 14 85 14 26 0
104 15 209 41 22 6 60 14 85 18 25 4 61 12 80 19 19 6 55 15 80 21 25 5 72 17
105 26 33 9 85 23 115 31 105 26 145 37 183 50 20 8 49 14 63 14 14 0 34 5 45
10 10 6 38 14 61 19 24 5 57 14 73 19 17 6 57 18 90 27 33 9 78 23 100 30 22
7 74 23 115 35 41 13 89 29 107 36 17 8 39 14 48 14 9 0 26 5 38 12 12 6 35
15 52 19 16 4 55 17 85 29 30 12 64 24 75 27 24 6 117 40 162 59 17 8 37 14
45 14 8 0 18 4 24 8 8 7 35 18 169 69 22 8 54 21 70 29 17 7 42 16 58 20 15 3
30 10 33 15 3 5 12 9 20 9 13 0 42 11 129 50 11 5 45 19 75 31 30 11 69 27 85
35 17 7 57 25 90 39 276 122 585 275 915 452 19 11 80 43 135 73 55 29 114 61
130 70 17 9 48 27 70 41 22 14 47 29 55 32 8 4 29 16 45 27 17 11 44 26 60 34
17 8 45 26 64 40 19 14 40 26 47 26 7 0 14 4 16 8 2 5 37 28 78 52 41 25 77
47 80 50 3 3 14 10 25 17 171 103 195 118 367 235 195 133 222 152 226 161 2
4 7 7 12 7 6 0 321 231 367 270 7 6 91 70 186 143 165 125 242 187 293 232 48
44 81 72 129 110 27 22 61 51 75 65 14 14 62 56 105 95 134 117 195 176 595
575 376 376 416 418 512 530 25 30 63 73 85 96 45 49 73 81 133 154 42 51 56
68 110 130 12 14 43 52 68 85 25 33 54 68 64 78 10 10 18 21 18 25 0 4 16 25
36 47 19 22 63 77 97 123 33 45 65 82 69 82 4 0 8 4 8 9 0 5 44 68 98 139 53
71 104 140 112 152 8 12 20 28 25 34 12 14 45 60 102 143 24 35 62 91 86 126
126 183 134 195 147 225 5 12 14 22 20 22 5 0 10 6 10 13 0 8 13 32 28 53 16
21 55 83 88 137 32 54 67 110 76 125 10 15 22 36 28 47 5 11 16 29 22 39 56
84 78 122 78 133 0 7 4 13 8 13 4 0 13 12 19 28 7 15 18 36 25 47 55 85 67
106 73 124 3 12 11 21 16 21 5 0 9 9 9 19 0 11 4 22 9 26 5 3 23 33 41 68 17
34 46 89 65 122 19 33 43 80 55 105 12 25 25 52 30 60 16 27 107 213 160 325
28 61 64 137 80 170 16 33 38 83 50 110 27 64 49 113 67 147 7 14 13 33 13 41
0 8 7 20 15 27 8 7 15 23 15 35 0 12 7 28 15 35 8 7 15 21 15 32 0 11 6 32 13
46 8 15 22 45 31 67 10 22 24 53 32 68 8 16 14 34 14 40 1 7 9 30 20 52 11 22
20 47 20 55 0 8 7 24 15 34 8 11 15 30 15 42 0 12 7 27 15 34 8 7 15 25 15 40
0 15 7 33 15 40 8 7 15 25 15 39 0 15 7 36 15 47 8 10 15 28 15 40 0 11 7 29
15 40 8 10 15 28 15 39 0 11 7 33 15 49 8 15 15 35 15 43 0 8 6 29 14 46 20
46 47 127 53 162 3 17 12 39 19 50 8 11 14 31 14 45 0 15 7 35 15 46 8 10 15
33 15 50 0 16 7 39 15 50 8 10 15 33 15 49 0 17 6 39 14 50 7 11 16 40 19 64
3 24 10 47 15 50 5 3 12 25 15 47 4 23 14 54 22 70 8 16 15 41 15 55 0 15 7
43 15 62 8 20 15 49 15 65 0 15 7 37 15 48 8 10 15 37 15 60 0 22 7 49 15 60
8 10 15 37 15 59 0 22 7 53 15 69 8 15 15 44 15 63 0 19 6 49 14 66 8 18 17
56 20 86 3 29 9 58 14 65 5 6 12 40 16 75 3 35 10 69 15 75 5 6 13 40 17 76 3
36 11 70 16 76 5 7 11 43 14 80 3 38 12 86 20 107 8 20 14 61 14 90 1 28 7 63
15 77 9 15 14 54 15 98 0 42 6 88 14 105 8 18 16 74 19 124 2 51 9 99 14 105
6 7 13 66 15 130 3 65 10 123 16 130 5 7 12 82 14 166 3 100 8 156 16 164 8 8
12 62 12 174 l0 162 -25 -11 c-16 -8 -25 -20 -25 -34 0 -13 -4 -23 -10 -23 -5
0 -10 -11 -10 -25 0 -14 -4 -25 -10 -25 -5 0 -10 -11 -10 -25 0 -14 -4 -25 -9
-25 -5 0 -78 -9 -162 -21 -121 -16 -184 -20 -293 -15 -77 3 -142 9 -145 14 -3
5 -31 12 -61 16 -30 4 -58 13 -62 19 -11 17 -10 57 2 57 6 0 10 7 10 15 0 8
-4 15 -10 15 -5 0 -10 11 -10 24 0 13 -6 26 -14 29 -18 7 -26 -1 -26 -25 0
-10 -4 -18 -10 -18 -5 0 -10 9 -10 19 0 11 -4 23 -10 26 -6 4 -10 146 -10 393
0 505 -17 1125 -36 1282 -8 69 -19 203 -24 299 -5 95 -16 210 -24 255 -8 44
-18 119 -21 166 -4 47 -13 110 -20 140 -7 30 -16 91 -19 135 -7 81 -35 257
-61 375 -8 36 -19 99 -25 140 -5 41 -17 97 -25 124 -8 27 -15 63 -15 80 0 29
-17 106 -60 276 -35 141 -51 205 -60 250 -19 88 -73 286 -111 404 -10 33 -19
69 -19 80 0 12 -6 33 -14 48 -8 15 -17 42 -21 60 -11 54 -117 374 -195 588
-23 63 -48 133 -55 155 -7 22 -26 69 -40 105 -15 36 -35 85 -45 110 -9 25 -22
56 -28 70 -6 14 -32 77 -58 140 -26 63 -55 133 -65 156 -11 22 -19 43 -19 47
0 8 -138 304 -264 567 -45 94 -94 187 -186 350 -26 47 -67 121 -90 165 -23 44
-84 149 -134 232 -50 84 -95 161 -101 170 -84 149 -255 411 -463 709 -56 81
-302 406 -404 536 -53 67 -179 220 -345 419 -335 401 -903 963 -1399 1384
-140 119 -461 375 -558 445 -54 39 -148 108 -210 154 -138 103 -573 394 -732
490 -341 206 -408 246 -411 246 -2 0 -59 31 -126 69 -198 112 -287 159 -382
205 -49 24 -155 75 -235 113 -201 97 -273 130 -390 178 -36 14 -78 32 -95 40
-16 8 -79 35 -140 60 -60 25 -130 55 -155 65 -25 10 -76 31 -115 45 -38 14
-86 32 -105 39 -19 8 -73 28 -120 45 -47 18 -94 36 -105 41 -11 5 -85 30 -165
55 -80 25 -158 51 -175 56 -16 6 -59 19 -95 30 -36 11 -85 27 -110 35 -77 24
-229 67 -445 124 -38 11 -113 31 -165 45 -52 15 -124 32 -160 40 -36 7 -94 20
-130 29 -36 9 -105 25 -155 37 -49 11 -115 26 -147 34 -31 8 -98 19 -149 25
-50 6 -95 13 -99 15 -12 7 -298 49 -575 85 -351 44 -417 51 -605 65 -107 8
-233 19 -280 25 -97 11 -1252 11 -1455 -1z m7985 -3368 c152 -39 311 -107 390
-165 150 -112 296 -334 374 -569 19 -56 49 -140 66 -187 28 -75 95 -352 135
-555 8 -38 23 -117 35 -175 12 -58 27 -144 35 -193 8 -48 16 -91 19 -95 10
-17 76 -362 86 -453 6 -52 17 -130 25 -174 48 -277 68 -629 69 -1200 1 -346
-2 -474 -12 -517 -7 -32 -17 -133 -21 -225 -5 -109 -15 -200 -29 -258 -22 -98
-43 -223 -48 -295 -3 -41 -23 -170 -44 -290 -19 -105 -101 -401 -128 -460 -16
-36 -35 -81 -43 -100 -7 -19 -24 -50 -36 -69 -13 -19 -23 -44 -23 -57 0 -13
-7 -38 -15 -56 -8 -18 -30 -73 -49 -123 -34 -91 -195 -424 -236 -490 -76 -122
13 127 217 610 14 33 33 71 42 84 9 14 26 61 38 105 12 45 33 115 46 156 41
128 75 251 98 355 11 55 27 123 35 151 7 28 18 80 23 115 6 35 17 93 25 129 7
36 19 108 25 160 30 237 41 331 50 415 6 50 15 135 21 190 8 67 10 260 8 580
-4 474 -8 532 -48 865 -6 47 -15 123 -20 170 -6 47 -15 108 -20 135 -5 28 -16
95 -25 150 -21 139 -52 301 -80 425 -13 58 -36 164 -49 235 -14 72 -37 177
-51 235 -13 58 -32 139 -41 180 -25 119 -129 436 -191 586 -42 100 -79 160
-163 260 -218 259 -398 353 -682 354 -146 0 -200 -12 -453 -103 -39 -13 -93
-38 -120 -53 -28 -16 -72 -40 -99 -53 -28 -13 -103 -58 -169 -98 -66 -41 -121
-72 -123 -70 -6 6 129 113 168 133 17 9 57 34 88 55 175 119 477 233 690 258
104 13 131 12 210 -8z m-14025 -119 c95 -23 238 -71 351 -118 96 -40 326 -156
404 -205 59 -37 217 -151 255 -184 13 -11 67 -51 121 -90 53 -38 153 -115 222
-170 68 -55 135 -107 149 -116 39 -26 149 -122 162 -142 10 -16 9 -16 -11 -5
-12 7 -101 72 -196 143 -186 139 -245 182 -311 230 -23 17 -68 50 -100 75
-376 291 -844 521 -1121 552 -172 18 -347 -4 -449 -57 -217 -114 -403 -299
-518 -516 -77 -145 -197 -498 -218 -639 -12 -86 -71 -371 -110 -535 -8 -34
-19 -106 -25 -160 -30 -297 -43 -396 -56 -455 -8 -36 -21 -110 -29 -165 -8
-55 -19 -118 -25 -140 -5 -22 -10 -57 -10 -77 0 -21 -4 -38 -9 -38 -9 0 -7 49
9 200 5 52 15 154 21 225 21 257 30 341 45 430 8 50 19 119 25 155 5 36 14 81
19 100 6 19 19 94 30 165 24 151 43 256 63 340 25 104 87 334 103 383 32 95
174 364 220 418 46 54 177 174 270 248 66 52 233 130 319 149 39 9 79 18 90
21 42 10 233 -3 310 -22z m13988 -187 c94 -20 206 -84 305 -174 152 -139 208
-236 236 -408 5 -31 5 -31 -23 -22 -19 7 -37 6 -57 -2 -16 -6 -85 -28 -154
-49 -160 -48 -191 -60 -303 -116 -148 -74 -326 -190 -477 -309 -52 -42 -113
-87 -135 -102 -52 -34 -104 -76 -179 -143 -33 -31 -79 -69 -101 -85 -57 -43
-106 -87 -221 -197 -88 -86 -134 -117 -134 -90 0 8 20 26 195 177 50 43 102
90 116 105 15 15 76 67 135 116 60 48 123 99 140 113 17 14 44 36 60 48 16 12
59 46 95 75 119 94 143 112 234 173 205 138 397 232 619 306 66 21 123 45 128
52 22 35 8 69 -60 141 -38 39 -78 85 -90 103 -30 43 -182 150 -264 184 -135
58 -244 72 -408 51 -47 -6 -87 -9 -89 -7 -4 4 56 31 104 47 82 27 234 33 328
13z m-443 -70 c0 -6 -70 -35 -84 -34 -6 0 9 9 34 19 53 22 50 21 50 15z
m-13840 -24 c-8 -5 -40 -11 -70 -14 -53 -6 -54 -6 -25 8 32 15 121 21 95 6z
m302 -11 c17 -7 5 -8 -42 -3 -36 3 -72 10 -80 15 -20 12 89 2 122 -12z m138
-40 c93 -29 325 -140 361 -173 11 -10 39 -30 62 -43 26 -14 35 -24 24 -24 -10
0 -38 14 -62 30 -24 17 -46 30 -48 30 -6 0 -212 95 -240 111 -9 5 -43 19 -75
31 -52 19 -117 58 -96 58 5 0 38 -9 74 -20z m-610 1 c0 -5 -27 -26 -60 -46
-58 -35 -262 -246 -280 -290 -5 -11 -9 -14 -9 -7 -1 7 9 29 22 50 12 20 29 50
37 67 25 51 161 179 219 208 59 29 71 32 71 18z m13154 -126 c-22 -20 -50 -44
-64 -53 -14 -9 -47 -35 -75 -58 -27 -23 -77 -59 -110 -79 -33 -21 -85 -58
-115 -81 -30 -24 -72 -56 -93 -71 -21 -16 -87 -68 -148 -118 -154 -125 -381
-297 -484 -365 -27 -18 -75 -55 -105 -80 -82 -71 -150 -121 -150 -112 0 11 73
80 125 118 22 16 53 40 69 54 77 66 133 111 217 175 51 39 122 95 158 125 130
109 207 168 301 230 83 55 116 79 166 119 12 10 162 119 209 151 64 45 130 86
134 84 2 -2 -14 -19 -35 -39z m-12004 -162 c19 -13 57 -37 83 -54 26 -17 46
-34 43 -37 -3 -3 -24 8 -47 24 -23 16 -63 43 -90 59 -26 17 -51 34 -56 38 -13
14 31 -6 67 -30z m12250 -3 c-30 -18 -70 -47 -165 -120 -53 -41 -111 -84 -128
-94 -18 -11 -52 -36 -77 -56 -88 -71 -160 -120 -160 -109 0 14 73 83 124 116
21 14 72 51 112 82 40 31 87 66 106 79 76 53 165 109 178 114 21 7 28 -2 10
-12z m-12045 -135 c28 -19 68 -47 89 -61 111 -74 556 -464 556 -488 0 -9 -46
20 -95 61 -22 18 -47 39 -56 45 -8 7 -38 33 -65 58 -95 85 -159 139 -206 172
-40 29 -216 177 -273 230 -32 30 -3 20 50 -17z m-1750 -97 c-53 -17 -63 -9
-45 37 l10 27 28 -28 c26 -28 26 -29 7 -36z m15450 -81 c39 -113 72 -235 100
-367 13 -63 33 -156 44 -206 11 -49 22 -119 26 -155 4 -35 15 -109 26 -164 28
-141 48 -241 59 -305 5 -30 18 -93 29 -140 10 -47 21 -135 25 -197 4 -62 9
-123 12 -135 2 -13 7 -79 10 -148 5 -130 -7 -142 -20 -20 -4 36 -14 115 -23
175 -8 61 -19 142 -23 180 -27 257 -47 401 -67 490 -17 76 -227 937 -243 996
-6 20 -10 51 -10 70 0 29 2 31 14 19 8 -8 26 -50 41 -93z m-15234 63 c75 -20
222 -76 294 -112 56 -29 228 -142 300 -197 33 -26 71 -54 85 -62 60 -39 190
-162 190 -180 0 -6 -15 -1 -32 11 -18 12 -46 29 -62 38 -29 17 -187 131 -240
174 -33 27 -158 108 -263 171 -83 50 -208 103 -335 142 -49 15 -88 29 -88 31
0 11 85 2 151 -16z m12993 -191 c-16 -17 -54 -49 -84 -72 -30 -22 -69 -54 -86
-70 -18 -16 -40 -27 -50 -25 -13 2 6 23 71 79 100 83 166 131 174 124 2 -3 -9
-19 -25 -36z m-10612 -7 c18 -15 50 -40 71 -56 81 -59 105 -104 30 -54 -79 52
-153 115 -153 130 0 15 19 8 52 -20z m-2750 -34 c-7 -7 -12 -8 -12 -2 0 14 12
26 19 19 2 -3 -1 -11 -7 -17z m-15 -40 c-3 -8 -6 -5 -6 6 -1 11 2 17 5 13 3
-3 4 -12 1 -19z m3088 -178 c15 -16 15 -20 3 -20 -8 0 -23 9 -33 20 -15 16
-15 20 -3 20 8 0 23 -9 33 -20z m9972 0 c-14 -11 -29 -20 -33 -20 -4 0 1 9 11
20 10 11 25 20 33 20 9 0 6 -7 -11 -20z m-9862 -89 c78 -52 109 -75 180 -132
38 -30 113 -85 165 -122 52 -37 136 -99 185 -138 50 -39 131 -101 180 -138 50
-37 116 -87 149 -112 32 -24 75 -53 96 -64 20 -11 50 -30 66 -43 47 -37 123
-86 222 -141 51 -29 92 -55 92 -58 0 -16 -85 15 -180 68 -60 32 -112 59 -115
59 -10 0 -120 75 -128 88 -4 6 -26 21 -47 32 -21 11 -65 41 -97 67 -61 50 -94
75 -283 213 -148 108 -317 242 -434 344 -11 10 -40 34 -63 53 -39 32 -53 53
-37 53 3 0 26 -13 49 -29z m-3269 -115 c-9 -55 -21 -127 -26 -158 -33 -194
-46 -284 -60 -438 -29 -309 -40 -390 -52 -390 -7 0 -8 46 -4 138 14 263 40
468 93 707 8 39 20 111 27 160 12 93 27 138 34 101 2 -10 -3 -64 -12 -120z
m12378 -13 c-9 -9 -31 -29 -49 -43 -19 -14 -67 -51 -108 -82 -40 -32 -82 -58
-91 -58 -23 0 -12 15 29 43 18 12 59 42 91 67 96 73 118 88 132 89 9 1 8 -4
-4 -16z m-304 -229 c-8 -8 -22 -20 -32 -25 -17 -9 -18 -8 -9 9 10 19 25 29 45
31 5 1 3 -6 -4 -15z m-90 -73 c0 -18 -55 -50 -66 -38 -7 7 44 57 57 57 5 0 9
-8 9 -19z m-10073 -98 c17 -18 26 -33 19 -33 -16 0 -86 65 -86 80 0 15 19 1
67 -47z m9991 35 c-4 -11 -119 -101 -203 -158 -20 -14 -60 -43 -88 -65 -56
-44 -146 -99 -152 -93 -2 2 26 26 61 53 36 28 82 64 103 80 36 29 123 93 218
163 47 33 67 40 61 20z m-8537 -15 c13 -17 13 -17 -6 -3 -11 8 -22 16 -24 17
-2 2 0 3 6 3 6 0 17 -8 24 -17z m10379 -83 c-11 -20 -40 -28 -40 -10 0 9 28
29 43 30 4 0 3 -9 -3 -20z m-11720 -50 c0 -5 -2 -10 -4 -10 -3 0 -8 5 -11 10
-3 6 -1 10 4 10 6 0 11 -4 11 -10z m11643 -24 c-23 -39 -155 -166 -173 -166
-24 0 -4 28 73 101 75 71 121 101 100 65z m-11583 -30 c7 -9 21 -16 31 -16 11
0 27 -13 37 -30 10 -16 44 -56 75 -90 62 -66 68 -77 35 -59 -26 13 -228 210
-228 222 0 10 33 -8 50 -27z m6575 -46 c174 -10 264 -20 545 -60 238 -34 370
-56 378 -64 15 -16 -19 -13 -179 13 -96 17 -214 33 -264 36 -49 3 -135 12
-190 20 -85 12 -332 24 -760 39 -55 1 -217 -1 -360 -5 -656 -20 -731 -24 -880
-39 -49 -5 -151 -14 -225 -21 -134 -11 -245 -26 -390 -54 -276 -53 -340 -64
-383 -68 -26 -3 -46 -3 -44 0 17 16 254 63 467 92 30 4 75 13 100 19 111 26
172 36 275 42 61 4 171 17 245 29 101 15 187 21 340 22 113 1 275 5 360 9 180
9 747 3 965 -10z m4795 -124 c0 -29 -119 -120 -136 -103 -6 6 114 117 127 117
5 0 9 -6 9 -14z m-2084 -14 c-7 -12 -46 -23 -46 -13 0 9 43 31 49 25 1 -1 0
-7 -3 -12z m-1637 -8 c10 -9 -115 -3 -129 6 -10 6 9 7 55 3 39 -3 72 -7 74 -9z
m-7384 -64 c16 -16 24 -30 19 -30 -6 0 -23 14 -39 30 -16 17 -24 30 -19 30 6
0 23 -13 39 -30z m8935 20 c0 -5 -5 -10 -11 -10 -5 0 -7 5 -4 10 3 6 8 10 11
10 2 0 4 -4 4 -10z m2009 -87 c-39 -43 -83 -83 -92 -83 -12 0 1 19 47 68 44
47 87 61 45 15z m-10736 -127 c61 -46 87 -79 73 -93 -7 -7 -83 62 -141 127
-42 47 -39 45 68 -34z m10586 -22 c-25 -27 -39 -31 -39 -10 0 18 54 58 59 45
2 -6 -7 -21 -20 -35z m-13288 -241 c-1 -114 -7 -216 -11 -227 -7 -17 -9 -13
-11 19 0 22 -1 47 -1 55 1 8 4 95 8 193 3 98 9 175 12 172 4 -3 5 -99 3 -212z
m2898 63 c14 -14 20 -26 15 -26 -12 1 -34 19 -59 49 l-20 24 20 -11 c11 -5 31
-22 44 -36z m10181 -30 c0 -3 -4 -8 -10 -11 -5 -3 -10 -1 -10 4 0 6 5 11 10
11 6 0 10 -2 10 -4z m-13363 -68 c-3 -8 -6 -5 -6 6 -1 11 2 17 5 13 3 -3 4
-12 1 -19z m3362 -79 l26 -34 -34 26 c-36 26 -54 55 -31 47 7 -2 25 -20 39
-39z m-3368 -96 c-4 -153 -18 -204 -20 -67 -1 108 6 180 17 170 3 -3 4 -50 3
-103z m1576 -19 c34 -26 36 -44 3 -44 -37 0 -50 -37 -45 -129 18 -330 27 -453
35 -501 35 -211 35 -206 6 -240 -14 -17 -26 -37 -26 -43 0 -8 -3 -8 -11 0 -20
20 -53 553 -46 735 6 139 24 248 41 248 5 0 24 -12 43 -26z m13613 16 c0 -5
-7 -10 -16 -10 -8 0 -12 5 -9 10 3 6 10 10 16 10 5 0 9 -4 9 -10z m-60 -45
c-7 -8 -20 -15 -29 -15 -13 1 -13 3 3 15 26 19 42 19 26 0z m-72 -58 c-55 -46
-186 -151 -254 -205 -40 -31 -104 -85 -142 -119 -39 -34 -81 -67 -93 -73 -20
-11 -21 -11 -8 7 16 23 83 81 204 178 48 39 93 75 99 80 6 6 31 26 56 46 25
21 61 51 80 69 36 32 71 52 80 43 3 -3 -7 -14 -22 -26z m222 -93 c-8 -27 -8
-26 -9 16 0 32 2 40 9 29 5 -9 6 -28 0 -45z m1207 -376 c-4 -324 -10 -458 -27
-623 -12 -115 -25 -250 -30 -300 -7 -87 -45 -290 -75 -405 -8 -30 -19 -93 -26
-140 -6 -47 -16 -93 -21 -103 -10 -19 -15 -37 -61 -207 -24 -87 -64 -203 -131
-383 -40 -104 -164 -353 -222 -442 -75 -117 -201 -265 -225 -265 -11 0 33 72
75 122 153 180 253 377 356 708 24 74 58 173 76 220 18 47 42 127 54 179 11
51 25 101 30 110 5 10 13 46 19 82 17 107 38 212 50 249 7 19 18 82 26 140 7
58 25 160 39 227 37 177 62 535 73 1016 3 141 9 227 15 227 7 0 8 -141 5 -412z
m-14481 201 c54 -50 103 -95 109 -100 5 -6 3 -9 -5 -9 -8 0 -31 14 -50 31 -19
16 -55 47 -79 67 -69 58 -91 80 -91 92 0 21 18 8 116 -81z m1779 22 c-8 -7
-45 36 -45 53 0 6 12 -2 26 -18 14 -15 22 -31 19 -35z m11486 -42 l-9 -44 -1
41 c-1 22 2 44 6 47 12 12 13 1 4 -44z m-11185 -327 c-9 -8 -26 10 -26 26 1
15 2 15 15 -2 8 -11 13 -21 11 -24z m11029 -259 c-4 -32 -15 -89 -26 -128 -11
-38 -24 -101 -30 -140 -11 -79 -33 -152 -61 -208 -10 -21 -24 -63 -29 -94 -10
-54 -49 -163 -89 -248 -11 -22 -33 -75 -51 -118 -17 -42 -40 -87 -50 -100
l-19 -22 6 30 c3 17 14 50 24 75 10 25 31 86 48 135 84 260 184 554 197 580
12 25 65 258 65 286 0 5 5 9 11 9 8 0 9 -18 4 -57z m-10804 -10 c7 -13 9 -26
5 -30 -8 -8 -52 43 -59 69 -5 16 -4 16 18 0 13 -9 29 -27 36 -39z m-2731 -242
c0 -14 12 -84 25 -156 14 -71 30 -163 36 -202 14 -102 85 -362 149 -547 40
-113 45 -153 14 -112 -8 11 -14 27 -14 35 0 9 -16 47 -35 86 -82 167 -206 716
-205 914 0 29 2 32 15 21 8 -7 15 -24 15 -39z m13618 -41 c-13 -70 -17 -84
-24 -77 -5 5 7 71 22 126 10 34 11 1 2 -49z m-14881 -67 c-3 -10 -5 -4 -5 12
0 17 2 24 5 18 2 -7 2 -21 0 -30z m14844 -124 l-10 -34 4 40 c2 22 5 47 6 55
1 8 4 5 6 -6 2 -12 0 -37 -6 -55z m-21 -99 c0 -22 -3 -40 -8 -40 -4 0 -6 18
-4 40 2 22 6 40 8 40 2 0 4 -18 4 -40z m-15062 -85 c0 -34 -1 -36 -8 -15 -4
14 -8 45 -8 70 0 40 1 42 8 15 4 -16 8 -48 8 -70z m317 -155 c3 -48 1 -44 -15
35 -11 50 -19 101 -19 115 1 40 31 -89 34 -150z m1453 109 c-3 -8 -7 -3 -11
10 -4 17 -3 21 5 13 5 -5 8 -16 6 -23z m-1748 -64 c0 -23 -3 -27 -10 -15 -5 8
-10 29 -10 45 0 23 3 27 10 15 5 -8 10 -28 10 -45z m1757 23 c-3 -8 -6 -5 -6
6 -1 11 2 17 5 13 3 -3 4 -12 1 -19z m53 -95 c0 -8 7 -28 16 -44 8 -17 14 -35
12 -41 -2 -6 -16 20 -30 57 -17 42 -22 62 -12 54 8 -6 14 -18 14 -26z m-1765
-158 c10 -44 22 -102 27 -130 5 -27 14 -68 19 -90 5 -22 25 -104 43 -181 18
-78 37 -147 41 -154 5 -7 18 -54 30 -104 13 -50 33 -116 45 -146 12 -30 47
-132 79 -225 32 -94 63 -179 69 -190 7 -11 36 -81 66 -155 30 -74 78 -184 108
-245 30 -60 76 -153 102 -205 25 -52 59 -118 75 -145 15 -28 32 -61 36 -75 7
-23 7 -24 -10 -10 -10 8 -29 38 -44 66 -54 106 -84 159 -96 174 -33 39 -300
590 -319 660 -4 14 -11 34 -16 45 -15 34 -88 288 -95 330 -3 22 -17 69 -30
105 -14 36 -29 85 -34 110 -5 25 -21 99 -36 165 -15 66 -31 152 -35 190 -5 39
-20 113 -34 165 -26 95 -33 152 -18 135 5 -6 17 -46 27 -90z m311 -65 l4 -65
-19 50 c-11 28 -19 75 -20 105 l0 55 15 -40 c8 -22 17 -69 20 -105z m3692 73
c-8 -10 -26 -31 -39 -47 -34 -42 -167 -176 -173 -176 -3 0 -6 4 -6 8 0 11 214
232 224 232 5 0 2 -8 -6 -17z m-2137 -93 c5 0 9 -12 9 -27 0 -26 -1 -25 -20
12 -11 22 -20 46 -19 55 0 8 5 3 11 -12 5 -16 14 -28 19 -28z m-1534 -92 c-3
-8 -6 -5 -6 6 -1 11 2 17 5 13 3 -3 4 -12 1 -19z m58 -148 c9 -41 20 -79 24
-85 5 -5 21 -48 36 -95 15 -47 33 -98 40 -115 20 -48 105 -289 105 -298 0 -18
73 -174 103 -222 25 -40 131 -185 174 -240 20 -25 43 -65 43 -75 0 -35 -120
101 -174 196 -66 117 -136 258 -136 275 0 8 -5 20 -11 26 -24 24 -151 350
-210 538 -20 64 -49 196 -49 220 1 30 40 -61 55 -125z m1378 -95 c6 -17 4 -17
-13 4 -11 13 -20 28 -20 33 0 14 25 -14 33 -37z m242 -47 c-3 -8 -33 -37 -67
-64 -34 -27 -75 -62 -93 -79 -35 -33 -138 -187 -149 -222 -4 -12 -22 -44 -41
-71 -18 -27 -47 -78 -65 -113 -84 -167 -240 -400 -311 -464 l-33 -30 18 30
c10 17 29 44 41 60 20 28 100 161 117 195 5 8 41 67 82 130 101 155 194 316
245 424 39 81 42 93 36 141 l-6 53 40 -11 c35 -10 47 -7 108 20 67 30 89 30
78 1z m13485 -1018 c-6 -11 -16 -20 -22 -20 -6 0 -3 9 7 20 10 11 20 20 22 20
2 0 -1 -9 -7 -20z m-14506 -32 l41 -43 -32 -3 c-49 -5 -73 13 -73 53 0 19 5
35 11 35 6 0 30 -19 53 -42z m14256 -63 c10 -12 10 -15 -3 -15 -8 0 -20 7 -27
15 -10 12 -10 15 3 15 8 0 20 -7 27 -15z m-9020 -135 c0 -15 -18 -12 -51 7
-45 27 -36 45 11 22 22 -11 40 -24 40 -29z m4163 17 c-85 -73 -142 -117 -153
-117 -18 0 -2 18 57 63 116 88 169 118 96 54z m-4068 -87 c3 -6 -1 -7 -9 -4
-18 7 -21 14 -7 14 6 0 13 -4 16 -10z m-3969 -38 c-14 -14 -16 -14 -16 -1 0
20 23 44 29 28 2 -6 -4 -18 -13 -27z m-50 -58 c-11 -7 -22 -12 -25 -9 -2 3 4
12 15 19 10 8 21 12 24 9 3 -2 -4 -11 -14 -19z m7843 -12 c-13 -20 -77 -67
-83 -61 -7 6 16 33 49 56 37 27 49 29 34 5z m-7889 -32 c-6 -11 -15 -20 -20
-20 -6 0 -2 9 7 20 10 11 19 20 21 20 1 0 -2 -9 -8 -20z m-30 -35 c0 -4 -84
-111 -103 -130 -26 -27 29 62 60 96 34 37 43 45 43 34z m7776 -48 c-14 -13
-26 -28 -26 -34 0 -5 -31 -36 -69 -68 -37 -33 -76 -71 -86 -85 -27 -36 -114
-114 -121 -107 -12 12 28 67 93 128 37 35 81 77 98 94 36 36 129 104 134 100
2 -2 -9 -15 -23 -28z m5694 -44 c0 -5 -5 -15 -10 -23 -8 -12 -10 -11 -10 8 0
12 5 22 10 22 6 0 10 -3 10 -7z m-6028 -300 c-11 -16 -52 -65 -91 -110 -39
-45 -71 -86 -71 -92 0 -6 -9 -15 -19 -21 -17 -9 -17 -5 6 37 27 52 80 123 100
136 7 4 13 15 13 23 0 13 55 54 73 54 5 0 0 -12 -11 -27z m-264 -371 c-14 -37
-29 -43 -21 -9 6 23 23 50 29 44 2 -2 -2 -18 -8 -35z m6586 -527 c3 -8 1 -15
-3 -15 -5 0 -11 7 -15 15 -3 8 -1 15 3 15 5 0 11 -7 15 -15z m103 -146 c28
-41 59 -87 69 -104 9 -16 33 -49 53 -71 20 -23 55 -80 79 -125 41 -79 41 -82
13 -49 -31 36 -116 155 -138 192 -6 12 -23 32 -38 45 -14 14 -37 49 -51 78
-14 29 -34 61 -45 71 -21 19 -26 48 -7 42 7 -3 36 -38 65 -79z m-16017 -1893
l-21 -21 18 32 c10 18 20 28 22 22 2 -6 -6 -21 -19 -33z m16403 -49 c10 -28
-7 -19 -26 12 -9 16 -17 32 -17 35 0 10 36 -30 43 -47z m-16451 -29 c-8 -8 -9
-4 -5 13 4 13 8 18 11 10 2 -7 -1 -18 -6 -23z m16534 -142 c13 -33 30 -66 38
-75 15 -18 31 -61 21 -61 -3 0 -11 14 -16 30 -6 17 -15 30 -20 30 -5 0 -9 6
-9 14 0 7 -7 19 -15 26 -8 7 -15 19 -15 27 0 8 -11 31 -25 51 -14 20 -25 48
-25 62 0 24 1 23 22 -10 11 -19 32 -62 44 -94z m-16576 87 c0 -7 -35 -53 -69
-92 -11 -13 -21 -29 -21 -35 -1 -6 -14 -27 -30 -46 -45 -51 -36 -13 10 48 22
29 51 70 65 92 22 35 45 52 45 33z m16720 -339 c0 -25 -16 -15 -33 21 -23 48
-21 53 8 21 14 -15 25 -34 25 -42z m0 -102 c0 -20 -28 -32 -74 -31 l-51 0 55
19 c64 22 70 23 70 12z m-13073 -128 c-3 -3 -12 -4 -19 -1 -8 3 -5 6 6 6 11 1
17 -2 13 -5z m166 -43 c4 -1 12 -1 19 -1 6 0 9 -3 5 -6 -8 -9 -67 6 -67 17 0
6 7 6 18 0 9 -5 20 -9 25 -10z m8760 -28 c-7 -2 -19 -2 -25 0 -7 3 -2 5 12 5
14 0 19 -2 13 -5z m-213 -103 c-8 -5 -17 -7 -19 -4 -3 3 1 9 9 14 8 5 17 7 19
4 3 -3 -1 -9 -9 -14z m-65 -40 c-10 -19 -25 -30 -50 -34 -19 -4 -39 -15 -45
-26 -14 -25 -49 -45 -61 -33 -18 18 115 120 156 120 11 0 11 -5 0 -27z m-185
-121 c0 -6 -49 -59 -108 -117 -59 -59 -116 -118 -127 -132 -11 -14 -49 -61
-84 -105 -86 -108 -128 -171 -191 -290 -29 -55 -71 -131 -93 -168 -21 -38 -59
-113 -82 -167 -54 -122 -175 -437 -175 -457 0 -8 -16 -30 -35 -50 -44 -45 -45
-36 -6 113 79 302 266 700 440 934 136 184 306 359 420 432 31 20 41 22 41 7z
m4346 -52 c32 -35 86 -97 119 -138 33 -41 81 -96 107 -124 26 -27 67 -72 92
-99 26 -27 44 -51 42 -53 -12 -12 -229 206 -351 352 -27 33 -58 68 -67 79 -19
21 -24 46 -10 46 5 0 35 -29 68 -63z m-11787 -152 c41 -36 77 -65 80 -65 3 0
17 -17 31 -38 14 -20 36 -46 49 -56 13 -11 28 -26 35 -34 6 -8 43 -49 81 -92
68 -75 168 -229 195 -300 7 -19 33 -75 58 -125 51 -104 130 -317 143 -390 6
-27 21 -104 34 -170 49 -245 55 -288 55 -381 0 -52 6 -123 14 -157 23 -98 36
-190 36 -248 1 -30 8 -90 16 -134 9 -44 20 -100 24 -125 5 -25 18 -94 29 -153
11 -60 25 -123 30 -140 6 -18 18 -59 26 -91 9 -33 24 -74 35 -90 25 -41 137
-267 150 -303 l10 -28 -20 25 c-11 14 -30 43 -42 65 -11 22 -31 54 -43 70 -12
17 -30 48 -39 70 -10 22 -30 65 -45 95 -35 68 -76 201 -97 312 -8 45 -22 103
-30 127 -16 47 -43 215 -74 461 -64 502 -88 626 -160 835 -6 17 -24 73 -41
125 -68 216 -82 257 -107 300 -13 25 -37 70 -52 100 -15 30 -44 79 -64 109
-20 29 -36 55 -36 57 0 11 -73 118 -103 151 -44 49 -79 85 -103 104 -10 9 -29
27 -40 40 -12 13 -47 46 -78 73 -31 26 -56 52 -56 57 0 21 30 4 99 -56z m5789
-270 c-3 -3 -9 2 -12 12 -6 14 -5 15 5 6 7 -7 10 -15 7 -18z m25 -45 c3 -11 2
-20 -3 -20 -4 0 -10 11 -12 25 -6 29 7 25 15 -5z m95 -210 c27 -58 55 -123 62
-145 7 -22 19 -49 26 -60 7 -11 31 -78 53 -150 23 -71 50 -158 62 -192 11 -34
26 -99 34 -145 7 -46 20 -119 28 -163 17 -86 43 -289 51 -395 7 -85 -8 -57
-23 45 -14 88 -20 120 -51 275 -69 341 -186 748 -281 979 -37 88 -54 150 -24
86 8 -16 36 -77 63 -135z m-4622 -247 c-14 -43 -37 -114 -51 -158 -29 -88 -55
-198 -55 -233 0 -12 -9 -55 -19 -95 -11 -39 -27 -106 -36 -147 -17 -79 -112
-368 -126 -385 -14 -14 -11 27 5 81 8 27 22 92 32 144 9 52 27 136 39 185 13
50 28 117 35 150 7 33 23 82 37 109 13 26 31 84 40 128 8 44 26 101 39 126 13
25 24 51 24 59 0 19 51 126 57 120 2 -3 -7 -40 -21 -84z m-5836 -141 c-6 -37
-22 -92 -35 -122 -13 -30 -26 -79 -30 -109 -7 -61 -36 -128 -43 -99 -2 10 8
57 21 105 14 49 28 104 32 123 3 19 13 58 21 85 38 125 54 133 34 17z m11867
-384 c-3 -8 -6 -5 -6 6 -1 11 2 17 5 13 3 -3 4 -12 1 -19z m-30 -60 c-3 -8 -6
-5 -6 6 -1 11 2 17 5 13 3 -3 4 -12 1 -19z m-13 -45 c-9 -43 -53 -150 -88
-218 -17 -34 -36 -72 -42 -86 -8 -19 -146 -290 -233 -457 -7 -15 -51 -90 -96
-167 -46 -77 -116 -196 -156 -265 -40 -69 -80 -136 -89 -150 -9 -14 -30 -45
-46 -70 -16 -25 -52 -77 -81 -116 -29 -39 -53 -75 -53 -81 0 -6 -19 -39 -43
-74 -24 -35 -56 -86 -72 -114 -16 -27 -30 -45 -32 -39 -3 10 97 198 135 251
20 28 67 115 171 316 119 230 148 283 173 323 14 22 44 76 67 120 22 43 47 90
55 104 9 14 22 41 30 60 8 19 31 62 51 95 19 33 49 87 65 120 16 33 49 94 74
135 24 41 67 117 95 167 68 125 99 173 111 173 6 0 8 -12 4 -27z m-11974 -166
c0 -5 -4 -5 -10 -2 -5 3 -10 14 -10 23 0 15 2 15 10 2 5 -8 10 -19 10 -23z
m4719 -87 c17 -30 46 -84 65 -120 85 -159 129 -233 231 -390 23 -36 61 -96 84
-135 23 -38 46 -77 51 -85 27 -44 156 -276 229 -415 64 -120 185 -298 310
-455 107 -134 130 -164 187 -240 31 -41 67 -86 79 -100 12 -14 30 -37 40 -53
17 -27 17 -27 -3 -20 -22 9 -134 127 -224 238 -31 39 -73 88 -93 110 -20 22
-65 83 -101 135 -35 52 -77 111 -92 131 -113 150 -190 270 -290 449 -13 25
-44 74 -67 110 -23 36 -57 90 -77 120 -19 30 -72 120 -118 200 -46 80 -89 152
-95 160 -13 15 -95 176 -114 220 -26 64 -61 176 -61 199 0 22 2 23 14 11 8 -8
28 -40 45 -70z m6457 -191 c-30 -136 -55 -236 -74 -299 -38 -120 -64 -191 -70
-186 -10 10 21 149 45 205 13 29 23 62 23 73 0 11 5 29 12 41 6 12 15 38 19
57 12 55 36 143 44 163 14 35 15 10 1 -54z m-5516 -14 c0 -24 -32 -156 -37
-151 -8 7 -24 156 -19 165 8 13 56 0 56 -14z m5317 -177 c-3 -8 -6 -5 -6 6 -1
11 2 17 5 13 3 -3 4 -12 1 -19z m-152 -895 c-3 -16 -17 -44 -30 -64 -13 -20
-31 -54 -40 -75 -19 -46 -86 -146 -93 -139 -3 2 7 23 22 45 14 22 26 43 26 46
0 4 12 28 28 53 15 25 36 72 46 104 12 34 25 57 34 57 10 0 12 -7 7 -27z
m-400 -856 c-8 -13 -36 -39 -63 -57 -26 -18 -60 -46 -76 -62 -16 -16 -43 -38
-60 -49 -17 -12 10 18 59 66 75 71 140 125 153 125 1 0 -4 -11 -13 -23z m4120
13 c-3 -5 -16 -10 -28 -10 -18 0 -19 2 -7 10 20 13 43 13 35 0z m-4678 -408
c-9 -10 -40 -26 -69 -36 -29 -11 -57 -22 -63 -26 -17 -12 -55 -19 -55 -9 0 5
8 9 18 9 9 0 49 18 87 39 79 44 108 52 82 23z m-212 -91 c-11 -9 -124 -41
-146 -41 -8 1 4 8 26 16 74 29 138 42 120 25z m-172 -48 c-7 -2 -19 -2 -25 0
-7 3 -2 5 12 5 14 0 19 -2 13 -5z m3912 -624 c47 -12 52 -29 9 -29 -29 0 -64
16 -64 30 0 12 2 12 55 -1z m-1025 -593 c0 -2 -7 -6 -15 -10 -8 -3 -15 -1 -15
4 0 6 7 10 15 10 8 0 15 -2 15 -4z m-160 -55 c0 -15 -230 -85 -242 -73 -14 14
-1 32 24 32 31 0 180 31 198 41 19 11 20 11 20 0z m-7656 -295 c-3 -21 -9 -35
-11 -32 -3 3 -2 21 1 42 4 20 10 34 12 31 3 -3 2 -21 -2 -41z m-14 -183 c0
-21 3 -68 7 -105 7 -76 -6 -90 -31 -35 -22 49 -28 105 -16 143 16 47 40 45 40
-3z m7065 -40 c-19 -30 -65 -76 -65 -66 0 8 70 93 77 93 3 0 -3 -12 -12 -27z
m-6624 -368 c23 -24 49 -55 57 -67 l16 -22 -29 21 c-48 34 -105 90 -105 102 0
21 19 11 61 -34z m5504 -375 c-3 -5 -12 -10 -18 -10 -7 0 -6 4 3 10 19 12 23
12 15 0z m-1550 -277 c-26 -49 -58 -101 -71 -116 -13 -16 -24 -33 -24 -39 0
-5 -9 -21 -20 -35 -34 -43 -22 -7 20 62 22 36 40 68 40 71 0 4 18 33 40 65 22
32 40 63 40 69 0 5 5 10 11 10 6 0 -11 -39 -36 -87z m1280 16 c-9 -14 -241
-239 -285 -276 -162 -136 -370 -292 -530 -398 -41 -27 -77 -52 -80 -56 -3 -3
-33 -24 -67 -45 -488 -308 -659 -387 -889 -415 -118 -14 -293 0 -363 28 -140
56 -158 82 -25 37 69 -24 99 -28 236 -32 190 -5 212 1 446 120 86 44 180 91
207 105 92 46 320 177 366 210 26 18 50 33 54 33 4 0 33 19 65 43 32 23 93 64
137 91 43 27 103 65 133 85 72 46 243 176 261 197 8 9 36 34 64 54 27 21 82
68 120 106 39 38 85 82 103 97 34 27 59 36 47 16z m-1435 -274 c0 -8 -4 -15
-10 -15 -5 0 -7 7 -4 15 4 8 8 15 10 15 2 0 4 -7 4 -15z m-1350 -587 c0 -4
-13 1 -30 10 -16 9 -30 21 -30 25 0 5 14 0 30 -10 17 -9 30 -21 30 -25z m51
-22 c19 -8 45 -23 59 -34 14 -10 35 -22 47 -26 12 -4 45 -22 72 -41 27 -19 62
-37 78 -41 34 -8 83 -44 61 -44 -32 0 -167 66 -260 128 -113 73 -126 87 -57
58z"/>
</g>
</svg>
